<?xml version="1.0" encoding="UTF-8" standalone="no"?>
<!-- Created with Inkscape (http://www.inkscape.org/) -->

<svg
   version="1.1"
   id="svg2"
   xml:space="preserve"
   width="302.21771"
   height="149.87306"
   viewBox="0 0 302.21771 149.87306"
   sodipodi:docname="logo_km.svg"
   inkscape:version="1.1.2 (0a00cf5339, 2022-02-04)"
   xmlns:inkscape="http://www.inkscape.org/namespaces/inkscape"
   xmlns:sodipodi="http://sodipodi.sourceforge.net/DTD/sodipodi-0.dtd"
   xmlns="http://www.w3.org/2000/svg"
   xmlns:svg="http://www.w3.org/2000/svg"><defs
     id="defs6"><clipPath
       clipPathUnits="userSpaceOnUse"
       id="clipPath16"><path
         d="M 0,300 H 300 V 0 H 0 Z"
         id="path14" /></clipPath></defs><sodipodi:namedview
     id="namedview4"
     pagecolor="#ffffff"
     bordercolor="#666666"
     borderopacity="1.0"
     inkscape:pageshadow="2"
     inkscape:pageopacity="0.0"
     inkscape:pagecheckerboard="false"
     showgrid="false"
     inkscape:zoom="1.7975"
     inkscape:cx="200.27816"
     inkscape:cy="200"
     inkscape:window-width="1920"
     inkscape:window-height="1016"
     inkscape:window-x="0"
     inkscape:window-y="27"
     inkscape:window-maximized="1"
     inkscape:current-layer="g8"
     showborder="true"
     fit-margin-top="0"
     fit-margin-left="0"
     fit-margin-right="0"
     fit-margin-bottom="0" /><g
     id="g8"
     inkscape:groupmode="layer"
     inkscape:label="FINAL SIN GUION-1"
     transform="matrix(1.3333333,0,0,-1.3333333,0,400)"
     style="display:inline"><g
       id="g10"
       transform="translate(-42.4444,103.13901)"><g
         id="g12"
         clip-path="url(#clipPath16)"><g
           id="g18"
           transform="translate(236.7846,183.6118)"><path
             d="m 0,0 c -21.053,1.815 -98.457,3.404 -128.781,-66.722 -0.085,-0.198 0.057,-0.425 0.268,-0.425 h 8.595 c 0.134,0 0.25,0.088 0.281,0.221 0.701,3.037 9.383,36.556 54.494,54.152 0.337,0.131 0.574,-0.355 0.261,-0.538 -9.273,-5.417 -33.677,-22.077 -45.372,-53.011 -10e-4,-0.001 0.001,-0.002 0,-0.004 l -0.056,-0.143 -0.114,-0.287 c 0.005,-0.195 0.153,-0.341 0.338,-0.365 h 0.083 l 7.185,0.006 h 0.299 c 0.27,0.05 0.494,0.217 0.613,0.46 l 0.062,0.199 c 0.004,0.017 0.005,0.034 0.01,0.05 1.59,4.9 22.611,64.696 101.799,65.824 C 0.334,-0.578 0.367,-0.032 0,0"
             style="fill:#e3a202;fill-opacity:1;fill-rule:nonzero;stroke:none"
             id="path20" /></g><g
           id="g22"
           transform="translate(240.8594,193.2702)"><path
             d="m 0,0 3.198,-5.385 25.05,-4.011 z"
             style="fill:#e3a202;fill-opacity:1;fill-rule:nonzero;stroke:none"
             id="path24" /></g><g
           id="g26"
           transform="translate(247.7562,183.7681)"><path
             d="M 0,0 3.429,-5.437 21.351,0.106 Z"
             style="fill:#e3a202;fill-opacity:1;fill-rule:nonzero;stroke:none"
             id="path28" /></g><g
           id="g30"
           transform="translate(244.8967,186.8937)"><path
             d="m 0,0 -2.114,-4.973 4.575,2.334 21.75,-0.381 z"
             style="fill:#bf8502;fill-opacity:1;fill-rule:nonzero;stroke:none"
             id="path32" /></g><g
           id="g34"
           transform="translate(48.8784,84.8438)"><path
             d="M 0,0 -3.664,9.71 V 0 h -2.77 v 21.028 h 2.799 v -9.65 l 2.979,9.65 h 2.83 L -1.311,10.604 2.799,0 Z"
             style="fill:#e3a202;fill-opacity:1;fill-rule:nonzero;stroke:none"
             id="path36" /></g><path
           d="m 55.906,105.872 h 2.74 V 84.844 h -2.74 z"
           style="fill:#e3a202;fill-opacity:1;fill-rule:nonzero;stroke:none"
           id="path38" /><g
           id="g40"
           transform="translate(69.6949,84.8438)"><path
             d="M 0,0 -3.366,15.429 -3.128,0 H -5.719 V 21.028 H -2.74 L 0.565,6.702 0.446,21.028 H 3.067 V 0 Z"
             style="fill:#e3a202;fill-opacity:1;fill-rule:nonzero;stroke:none"
             id="path42" /></g><g
           id="g44"
           transform="translate(84.6753,84.8438)"><path
             d="m 0,0 -0.269,0.983 c -0.387,-0.537 -1.012,-1.31 -2.59,-1.31 -0.418,0 -1.43,0.029 -2.325,0.773 -1.339,1.133 -1.399,2.771 -1.399,4.35 V 15.34 c 0,1.727 0.06,2.502 0.357,3.336 0.328,0.982 1.251,2.591 3.872,2.591 0.537,0 2.085,0 3.069,-1.371 0.565,-0.774 0.684,-1.459 0.684,-3.246 v -2.204 h -2.561 v 2.383 c 0,0.208 -0.029,0.446 -0.029,0.655 -0.031,0.328 0,1.49 -1.252,1.459 -0.416,0 -0.685,-0.119 -0.834,-0.238 -0.625,-0.446 -0.566,-1.399 -0.566,-2.085 V 4.527 c 0,-0.864 0.03,-1.518 0.208,-1.876 0.119,-0.238 0.447,-0.685 1.162,-0.656 0.149,0 0.477,0 0.805,0.209 0.565,0.387 0.596,1.102 0.596,1.668 v 4.766 h -1.699 v 2.561 H 1.668 V 0 Z"
             style="fill:#e3a202;fill-opacity:1;fill-rule:nonzero;stroke:none"
             id="path46" /></g><g
           id="g48"
           transform="translate(109.9585,84.8438)"><path
             d="M 0,0 V 16.918 L -2.412,0 H -4.766 L -7.148,16.918 V 0 h -2.591 v 21.028 h 3.962 L -3.514,7.06 -1.519,21.028 H 2.563 V 0 Z"
             style="fill:#e3a202;fill-opacity:1;fill-rule:nonzero;stroke:none"
             id="path50" /></g><g
           id="g52"
           transform="translate(126.5777,87.4346)"><path
             d="m 0,0 c -0.775,-2.77 -3.426,-2.918 -4.26,-2.918 -0.744,0 -3.068,0.148 -3.931,2.472 -0.239,0.595 -0.358,1.191 -0.358,2.471 v 16.412 h 2.711 V 2.175 c 0,-1.192 -0.03,-2.8 1.668,-2.8 0.178,0 0.685,0 1.072,0.328 0.596,0.506 0.625,1.25 0.625,2.651 V 18.437 H 0.268 V 2.502 C 0.268,2.324 0.268,0.983 0,0"
             style="fill:#e3a202;fill-opacity:1;fill-rule:nonzero;stroke:none"
             id="path54" /></g><g
           id="g56"
           transform="translate(132.2652,84.8438)"><path
             d="M 0,0 V 21.028 H 2.77 V 2.591 H 7.356 V 0 Z"
             style="fill:#e3a202;fill-opacity:1;fill-rule:nonzero;stroke:none"
             id="path58" /></g><g
           id="g60"
           transform="translate(148.0796,103.4004)"><path
             d="M 0,0 V -18.557 H -2.83 V 0 H -6.018 V 2.472 H 3.275 V 0 Z"
             style="fill:#e3a202;fill-opacity:1;fill-rule:nonzero;stroke:none"
             id="path62" /></g><path
           d="m 155.731,105.872 h 2.74 V 84.844 h -2.74 z"
           style="fill:#e3a202;fill-opacity:1;fill-rule:nonzero;stroke:none"
           id="path64" /><g
           id="g66"
           transform="translate(169.3731,84.7842)"><path
             d="m 0,0 c -0.357,-0.148 -0.923,-0.328 -1.847,-0.328 -1.697,0 -2.621,0.715 -3.068,1.252 -0.863,0.982 -0.923,2.114 -0.923,3.336 v 3.484 h 2.562 V 3.902 c 0,-1.013 0.148,-1.46 0.595,-1.757 0.119,-0.09 0.387,-0.268 0.834,-0.268 1.37,0.029 1.34,1.519 1.34,2.472 0,1.518 -0.238,2.352 -1.012,3.664 -0.775,1.37 -1.728,2.591 -2.532,3.931 -0.446,0.715 -1.608,2.502 -1.608,4.945 0,2.323 1.013,3.544 1.877,4.05 0.446,0.268 1.191,0.566 2.383,0.566 0.565,0 2.679,0.03 3.336,-2.026 0.119,-0.386 0.208,-0.744 0.208,-1.578 v -3.723 h -2.533 v 3.723 c -0.029,0.239 0.061,1.43 -1.101,1.43 -1.34,0 -1.37,-1.162 -1.37,-2.144 0,-1.758 0.476,-2.741 1.399,-4.201 0.388,-0.625 0.805,-1.22 1.222,-1.846 C 0.089,10.693 0.388,10.246 0.685,9.77 2.145,7.477 2.323,5.897 2.323,4.676 2.323,4.229 2.353,1.072 0,0"
             style="fill:#e3a202;fill-opacity:1;fill-rule:nonzero;stroke:none"
             id="path68" /></g><g
           id="g70"
           transform="translate(176.7276,84.8438)"><path
             d="M 0,0 V 21.028 H 6.939 V 18.407 H 2.8 V 12.242 H 6.493 V 9.621 H 2.83 V 2.651 H 6.939 V 0 Z"
             style="fill:#e3a202;fill-opacity:1;fill-rule:nonzero;stroke:none"
             id="path72" /></g><g
           id="g74"
           transform="translate(193.8828,102.3281)"><path
             d="M 0,0 C -0.03,0.446 -0.119,0.685 -0.298,0.834 -0.477,1.013 -0.774,1.013 -1.311,1.013 H -2.71 V -5.48 h 1.311 c 0.714,0 1.13,0.178 1.31,0.922 C 0.03,-4.051 0.06,-2.8 0.06,-1.341 0.06,-0.894 0.03,-0.447 0,0 m 0.327,-17.484 c -0.357,1.965 -0.416,2.413 -0.416,4.408 v 1.489 c 0,0.715 -0.03,1.459 -0.119,2.175 -0.061,0.506 -0.149,1.013 -0.507,1.34 -0.268,0.209 -0.565,0.268 -0.893,0.268 H -2.74 v -9.68 H -5.511 V 3.544 h 4.528 c 0.357,0 0.714,0 1.043,-0.029 C 0.804,3.455 2.204,3.365 2.621,1.459 2.74,0.923 2.8,-0.119 2.8,-1.549 2.8,-2.354 2.8,-3.188 2.74,-4.021 2.71,-4.558 2.621,-5.213 2.413,-5.689 1.906,-6.791 0.715,-6.762 0.269,-6.821 c 0.446,-0.089 1.31,0.03 1.906,-0.894 0.476,-0.744 0.506,-1.608 0.506,-3.336 v -2.294 c 0,-2.383 0.059,-2.829 0.536,-4.139 z"
             style="fill:#e3a202;fill-opacity:1;fill-rule:nonzero;stroke:none"
             id="path76" /></g><g
           id="g78"
           transform="translate(207.3438,84.8438)"><path
             d="m 0,0 h -3.276 l -3.217,21.028 h 2.769 L -1.579,4.17 0.477,21.028 h 2.74 z"
             style="fill:#e3a202;fill-opacity:1;fill-rule:nonzero;stroke:none"
             id="path80" /></g><path
           d="m 214.669,105.872 h 2.74 V 84.844 h -2.74 z"
           style="fill:#e3a202;fill-opacity:1;fill-rule:nonzero;stroke:none"
           id="path82" /><g
           id="g84"
           transform="translate(230.9902,86.4229)"><path
             d="m 0,0 c -0.507,-0.745 -1.579,-1.848 -3.813,-1.848 -2.144,0 -3.216,0.984 -3.723,1.729 C -8.28,0.953 -8.28,2.264 -8.28,3.484 v 10.158 c 0,0.476 0.029,0.953 0.059,1.429 0.06,0.804 0.208,3.455 2.89,4.319 0.596,0.209 1.102,0.268 1.757,0.268 1.549,0 2.383,-0.476 2.919,-0.924 0.447,-0.357 0.774,-0.803 0.982,-1.31 0.418,-0.953 0.447,-1.906 0.447,-2.919 v -2.681 h -2.799 v 3.247 c 0,0.447 0.149,2.174 -1.699,2.174 -0.595,0 -0.892,-0.179 -1.13,-0.357 C -5.54,16.292 -5.48,15.398 -5.48,14.595 V 2.979 c 0,-0.239 0,-0.477 0.03,-0.715 0.029,-0.567 0.119,-1.699 1.668,-1.699 0.178,0 0.654,-0.03 1.072,0.298 0.715,0.506 0.685,1.401 0.685,2.174 V 7.118 H 0.774 V 3.187 C 0.774,2.025 0.685,1.012 0,0"
             style="fill:#e3a202;fill-opacity:1;fill-rule:nonzero;stroke:none"
             id="path86" /></g><g
           id="g88"
           transform="translate(236.916,84.8438)"><path
             d="M 0,0 V 21.028 H 6.94 V 18.407 H 2.8 V 12.242 H 6.493 V 9.621 H 2.829 V 2.651 H 6.94 V 0 Z"
             style="fill:#e3a202;fill-opacity:1;fill-rule:nonzero;stroke:none"
             id="path90" /></g><g
           id="g92"
           transform="translate(254.1299,84.7842)"><path
             d="m 0,0 c -0.357,-0.148 -0.924,-0.328 -1.847,-0.328 -1.698,0 -2.621,0.715 -3.067,1.252 -0.864,0.982 -0.924,2.114 -0.924,3.336 v 3.484 h 2.562 V 3.902 c 0,-1.013 0.149,-1.46 0.595,-1.757 0.119,-0.09 0.388,-0.268 0.834,-0.268 1.37,0.029 1.341,1.519 1.341,2.472 0,1.518 -0.238,2.352 -1.014,3.664 -0.773,1.37 -1.726,2.591 -2.531,3.931 -0.447,0.715 -1.608,2.502 -1.608,4.945 0,2.323 1.013,3.544 1.876,4.05 0.447,0.268 1.191,0.566 2.383,0.566 0.566,0 2.681,0.03 3.336,-2.026 0.119,-0.386 0.209,-0.744 0.209,-1.578 v -3.723 h -2.532 v 3.723 c -0.03,0.239 0.059,1.43 -1.102,1.43 -1.341,0 -1.37,-1.162 -1.37,-2.144 0,-1.758 0.476,-2.741 1.4,-4.201 0.387,-0.625 0.804,-1.22 1.221,-1.846 C 0.09,10.693 0.387,10.246 0.686,9.77 2.145,7.477 2.323,5.897 2.323,4.676 2.323,4.229 2.354,1.072 0,0"
             style="fill:#e3a202;fill-opacity:1;fill-rule:nonzero;stroke:none"
             id="path94" /></g><g
           id="g96"
           transform="translate(174.6777,196.8608)"><path
             d="m 0,0 h -27.975 v -32.028 c 12.269,7.968 25.626,12.898 38.091,15.711 z"
             style="fill:#003244;fill-opacity:1;fill-rule:nonzero;stroke:none"
             id="path98" /></g><g
           id="g100"
           transform="translate(237.0498,184.625)"><path
             d="M 0,0 V 12.236 H -27.976 L -35.992,-0.911 C -21.975,0.597 -9.35,0.425 0,0"
             style="fill:#003244;fill-opacity:1;fill-rule:nonzero;stroke:none"
             id="path102" /></g><g
           id="g104"
           transform="translate(191.876,168.6558)"><path
             d="m 0,0 -2.272,3.726 c -21.565,-8.922 -34.804,-22.511 -42.901,-34.76 v -21.019 h 26.255 v 39.785 l 18.46,-28.549 H 0 l 18.46,28.549 V -52.053 H 45.174 V 13.395 C 28.909,12.731 15.196,10.012 3.648,5.984 Z"
             style="fill:#003244;fill-opacity:1;fill-rule:nonzero;stroke:none"
             id="path106" /></g><g
           id="g108"
           transform="translate(108.7251,162.0059)"><path
             d="M 0,0 27.976,34.855 H -3.211 L -26.027,4.815 v 30.04 h -26.829 v -80.258 h 26.829 v 17.084 l 6.88,8.369 16.172,-25.556 c 4.747,9.852 9.613,18.467 15.425,25.706 z"
             style="fill:#003244;fill-opacity:1;fill-rule:nonzero;stroke:none"
             id="path110" /></g></g></g></g></svg>
